<svg xmlns="http://www.w3.org/2000/svg" width="181" height="32" fill="none"><path fill="black" d="M52.17 7.391C51.414 2.877 47.895 0 42.728 0c-5.301 0-9.578 2.434-9.578 6.639 0 4.426 3.564 5.93 6.816 6.595l3.564.708c2.583.531 4.855 1.549 4.855 3.94 0 2.212-2.494 3.54-5.568 3.54-3.564 0-5.48-1.815-6.103-4.869h-4.277c.446 4.16 4.01 8.277 10.29 8.277 5.48 0 9.757-2.7 9.757-7.391 0-4.604-3.831-6.241-8.197-7.082L40.9 9.693c-2.316-.443-3.652-1.328-3.652-3.231 0-2.169 2.672-3.01 5.033-3.01 2.807 0 5.034 1.107 5.658 3.94h4.232zm11.422 10.667L59.004.443h-4.366l6.905 23.811h3.698L70.364 5.09l5.3 19.165h3.698L86.267.442H81.9l-4.588 17.615L72.546.443H68.36l-4.767 17.615zM103.352.443 97.428 18.81 91.325.444h-4.5l8.643 23.811-.179.487c-1.069 3.718-2.36 3.895-5.033 3.895h-1.649V32h2.094c5.346 0 6.593-1.55 8.33-6.727l8.553-24.83h-4.232zm6.689 0V32h4.054V20.67c1.47 2.522 4.01 4.16 7.841 4.16 5.479 0 10.245-4.515 10.245-12.393 0-7.834-4.766-12.393-10.245-12.393-3.831 0-6.371 1.638-7.841 4.16V.444h-4.054zm3.876 11.994c0-6.285 3.386-8.94 6.994-8.94 4.143 0 6.86 3.275 6.86 8.94 0 5.665-2.717 8.94-6.86 8.94-3.608 0-6.994-2.655-6.994-8.94zm43.28 1.24c.535-7.525-3.876-13.633-11.181-13.633-6.549 0-11.627 4.825-11.627 12.349 0 7.037 4.187 12.437 11.76 12.437 5.836 0 9.622-3.364 10.736-7.48h-4.187c-1.025 2.346-2.985 3.94-6.549 3.94-3.564 0-7.216-2.48-7.395-7.614h18.443zm-11.181-10.18c4.276 0 6.815 3.363 6.904 6.727h-14.121c.356-4.78 3.608-6.727 7.217-6.727zM180.198.443h-4.544l-5.88 8.188-5.836-8.188h-4.855l8.286 11.552-8.821 12.26h4.633l6.459-9.074 6.504 9.074H181l-8.954-12.438L180.198.443z"/><mask id="a" width="26" height="25" x="0" y="0" maskUnits="userSpaceOnUse" style="mask-type:alpha"><path fill="black" d="M0 0h25.008v24.861H0z"/></mask><g fill="black" mask="url(#a)"><path d="m1.086 7.492 6.562-6.457h4.905V5.85l-6.586 6.58h-4.88V7.492zm12.49-1.036L20.138 0h4.904v4.814l-6.585 6.58h-4.88V6.456zM12.534 18.87l6.562-6.457H24v4.814l-6.586 6.58h-4.88V18.87zM.025 19.907l6.562-6.457h4.904v4.813l-6.585 6.599-4.88-.019v-4.936z"/></g></svg>